<svg aria-hidden="true" style="position: absolute; width: 0; height: 0; overflow: hidden;" version="1.1" xmlns="http://www.w3.org/2000/svg" xmlns:xlink="http://www.w3.org/1999/xlink">
<defs>
<symbol id="icon-user" viewBox="0 0 32 32">
<path d="M17.84 27.34l-3.22-3.060-3-2.84 4-0.58 4.5-0.64 0.58-1.14h-0.040c-0.459 0-0.904-0.157-1.261-0.447s-0.603-0.692-0.697-1.141c-0.002-1.234 1.598-0.834 2.858-2.914 0.16-0.040 5.64-14.58-5.56-14.58s-5.72 14.54-5.72 14.54c1.26 2 2.88 1.7 2.86 2.9s-1.48 1.6-2.86 1.74c-2.28 0.26-4.28-0.26-6.28 3.52-1.2 2.18-1.7 9.3-1.7 9.3h14.72v-0.34l0.82-4.318zM23.44 32h1.12l-0.56-0.28-0.56 0.28z"></path>
<path d="M24 29.46l4.94 2.54-0.94-5.38 4-3.8-5.52-0.78-2.48-4.9-2.48 4.9-5.52 0.78 4 3.8-0.94 5.38 4.94-2.54z"></path>
</symbol>


<symbol id="icon-speed" viewBox="0 0 32 32">
<path fill="#fff" style="fill: var(--color1, #fff)" d="M22.902 20.272c1.134 1.053 2.043 2.325 2.671 3.739s0.964 2.941 0.986 4.488c-0 0.222-0.064 0.44-0.183 0.628s-0.29 0.337-0.491 0.432c-0.201 0.094-0.425 0.129-0.646 0.101s-0.429-0.119-0.599-0.261l-4.48-3.798z"></path>
<path fill="#0e0e0e" style="fill: var(--color2, #0e0e0e)" d="M25.37 30.163c-0.394-0.001-0.775-0.144-1.072-0.403l-4.458-3.811 0.64-0.73 4.442 3.814c0.1 0.088 0.224 0.144 0.356 0.163s0.267-0.001 0.388-0.056c0.121-0.056 0.223-0.145 0.295-0.258s0.108-0.244 0.107-0.377c-0.019-1.482-0.338-2.945-0.939-4.299s-1.47-2.574-2.556-3.582l0.64-0.704c1.182 1.094 2.13 2.417 2.785 3.889s1.006 3.061 1.029 4.671c0.004 0.318-0.084 0.631-0.255 0.9s-0.416 0.482-0.705 0.614c-0.218 0.106-0.456 0.164-0.698 0.17z"></path>
<path fill="#fff" style="fill: var(--color1, #fff)" d="M8.64 20.272c-1.521 1.428-2.627 3.242-3.2 5.248-0.276 0.969-0.421 1.971-0.432 2.979 0 0.222 0.064 0.44 0.183 0.628s0.29 0.337 0.491 0.432c0.201 0.094 0.425 0.129 0.646 0.101s0.429-0.119 0.599-0.261l4.461-3.798z"></path>
<path fill="#0e0e0e" style="fill: var(--color2, #0e0e0e)" d="M6.186 30.163c-0.244 0-0.486-0.053-0.707-0.157-0.29-0.131-0.536-0.344-0.706-0.613s-0.259-0.582-0.254-0.9c0.020-1.612 0.367-3.203 1.021-4.677s1.6-2.799 2.781-3.896l0.656 0.704c-1.465 1.364-2.53 3.102-3.078 5.027-0.265 0.929-0.405 1.889-0.416 2.854-0.001 0.133 0.037 0.263 0.108 0.375s0.173 0.201 0.294 0.257c0.12 0.056 0.254 0.076 0.386 0.057s0.255-0.074 0.355-0.161l4.451-3.814 0.64 0.73-4.458 3.811c-0.297 0.259-0.678 0.402-1.072 0.403z"></path>
<path fill="#fff" style="fill: var(--color1, #fff)" d="M19.443 25.6h-7.331c-0.732-0.001-1.439-0.267-1.989-0.75s-0.907-1.149-1.003-1.874l-0.445-3.43c-0.762-5.546 0.56-11.177 3.709-15.805 0.115-0.166 0.234-0.32 0.352-0.496l1.219-1.667c0.207-0.29 0.481-0.526 0.798-0.689s0.668-0.248 1.025-0.248 0.708 0.085 1.025 0.248c0.317 0.163 0.59 0.399 0.798 0.689l1.219 1.667c0.118 0.163 0.237 0.32 0.352 0.496 3.146 4.629 4.467 10.259 3.709 15.805l-0.448 3.414c-0.091 0.729-0.445 1.399-0.995 1.885s-1.259 0.755-1.993 0.755z"></path>
<path fill="#202020" style="fill: var(--color3, #202020)" d="M19.443 26.064h-7.331c-0.849 0-1.67-0.308-2.309-0.868s-1.052-1.333-1.163-2.175l-0.448-3.414c-0.779-5.665 0.575-11.418 3.798-16.141 0.115-0.17 0.237-0.339 0.358-0.506l1.216-1.68c0.254-0.348 0.587-0.631 0.971-0.826s0.809-0.297 1.24-0.297c0.431 0 0.856 0.102 1.24 0.297s0.717 0.478 0.971 0.826l1.213 1.68c0.122 0.166 0.24 0.336 0.358 0.506 3.225 4.723 4.579 10.475 3.802 16.141l-0.448 3.414c-0.111 0.842-0.524 1.614-1.162 2.174s-1.458 0.869-2.307 0.869zM15.776 1.13c-0.28-0.002-0.556 0.064-0.805 0.191s-0.465 0.312-0.628 0.539l-1.222 1.661-0.346 0.486c-3.085 4.531-4.376 10.046-3.622 15.475l0.448 3.414c0.081 0.61 0.38 1.171 0.843 1.577s1.057 0.63 1.672 0.631h7.328c0.614-0.005 1.207-0.231 1.668-0.636s0.762-0.963 0.847-1.572l0.442-3.414c0.751-5.427-0.541-10.94-3.626-15.469-0.112-0.163-0.227-0.32-0.342-0.486l-1.219-1.667c-0.164-0.227-0.38-0.412-0.63-0.539s-0.526-0.192-0.807-0.191z"></path>
<path fill="#0e0e0e" style="fill: var(--color2, #0e0e0e)" d="M15.776 15.843c-0.854 0-1.688-0.253-2.398-0.727s-1.263-1.148-1.59-1.936-0.413-1.656-0.247-2.493c0.166-0.837 0.577-1.606 1.18-2.21s1.372-1.016 2.209-1.183c0.837-0.167 1.705-0.083 2.494 0.243s1.463 0.878 1.939 1.587c0.475 0.709 0.729 1.543 0.731 2.397 0 1.145-0.455 2.244-1.264 3.055s-1.907 1.267-3.053 1.268zM15.776 8.163c-0.664 0-1.313 0.197-1.865 0.566s-0.982 0.893-1.236 1.506c-0.254 0.613-0.321 1.288-0.191 1.94s0.449 1.249 0.919 1.719c0.47 0.469 1.068 0.789 1.719 0.919s1.326 0.063 1.939-0.191c0.613-0.254 1.138-0.684 1.506-1.236s0.566-1.201 0.566-1.865c-0.002-0.889-0.356-1.741-0.985-2.37s-1.482-0.981-2.371-0.981v-0.006z"></path>
<path fill="#0e0e0e" style="fill: var(--color2, #0e0e0e)" d="M15.776 30.512c-0.127 0-0.249-0.051-0.339-0.141s-0.141-0.212-0.141-0.339v-3.104c0-0.127 0.051-0.249 0.141-0.339s0.212-0.141 0.339-0.141 0.249 0.051 0.339 0.141c0.090 0.090 0.141 0.212 0.141 0.339v3.104c0 0.127-0.051 0.249-0.141 0.339s-0.212 0.141-0.339 0.141z"></path>
<path fill="#0e0e0e" style="fill: var(--color2, #0e0e0e)" d="M13.536 31.709c-0.127 0-0.249-0.051-0.339-0.141s-0.141-0.212-0.141-0.339v-2.749c0-0.127 0.051-0.249 0.141-0.339s0.212-0.141 0.339-0.141 0.249 0.051 0.339 0.141c0.090 0.090 0.141 0.212 0.141 0.339v2.758c-0.002 0.126-0.054 0.245-0.144 0.333s-0.21 0.137-0.336 0.137z"></path>
<path fill="#0e0e0e" style="fill: var(--color2, #0e0e0e)" d="M18.016 31.709c-0.127 0-0.249-0.051-0.339-0.141s-0.141-0.212-0.141-0.339v-2.749c0-0.127 0.051-0.249 0.141-0.339s0.212-0.141 0.339-0.141 0.249 0.051 0.339 0.141c0.090 0.090 0.141 0.212 0.141 0.339v2.758c-0.003 0.126-0.054 0.245-0.144 0.333s-0.21 0.137-0.336 0.137z"></path>
</symbol>


<symbol id="icon-ux-ui" viewBox="0 0 32 32">
<path fill="#fff" style="fill: var(--color1, #fff)" d="M17.274 1.421h-10.822c-1.195 0-2.163 0.968-2.163 2.163v24.707c0 1.195 0.968 2.163 2.163 2.163h10.822c1.195 0 2.163-0.968 2.163-2.163v-24.707c0-1.195-0.968-2.163-2.163-2.163z"></path>
<path fill="#0e0e0e" style="fill: var(--color2, #0e0e0e)" d="M17.28 30.934h-10.829c-0.701-0.001-1.373-0.28-1.868-0.775s-0.774-1.167-0.775-1.868v-24.704c0.001-0.701 0.279-1.373 0.775-1.869s1.167-0.775 1.868-0.777h10.829c0.701 0.002 1.373 0.281 1.868 0.777s0.774 1.168 0.775 1.869v24.704c-0.001 0.701-0.28 1.373-0.775 1.868s-1.167 0.774-1.868 0.775zM6.451 1.901c-0.447 0.001-0.875 0.179-1.19 0.495s-0.493 0.745-0.493 1.191v24.704c0.001 0.446 0.178 0.874 0.494 1.189s0.743 0.493 1.189 0.494h10.829c0.446-0.001 0.874-0.178 1.189-0.494s0.493-0.743 0.494-1.189v-24.704c0-0.447-0.177-0.875-0.493-1.191s-0.744-0.494-1.19-0.495h-10.829z"></path>
<path fill="#0e0e0e" style="fill: var(--color2, #0e0e0e)" d="M14.006 4.189h-4.288c-0.551-0.001-1.078-0.22-1.468-0.609s-0.608-0.917-0.609-1.468v-1.171h8.442v1.171c-0.001 0.551-0.22 1.078-0.609 1.468s-0.917 0.608-1.468 0.609zM8.602 1.901v0.211c0 0.296 0.118 0.58 0.327 0.79s0.494 0.327 0.79 0.327h4.288c0.296 0 0.58-0.118 0.79-0.327s0.327-0.494 0.327-0.79v-0.211h-6.522z"></path>
<path fill="#0e0e0e" style="fill: var(--color2, #0e0e0e)" d="M17.504 6.528h-11.283c-0.127 0-0.249-0.051-0.339-0.141s-0.141-0.212-0.141-0.339c0-0.127 0.051-0.249 0.141-0.339s0.212-0.141 0.339-0.141h11.283c0.127 0 0.249 0.051 0.339 0.141s0.141 0.212 0.141 0.339-0.051 0.249-0.141 0.339c-0.090 0.090-0.212 0.141-0.339 0.141z"></path>
<path fill="#0e0e0e" style="fill: var(--color2, #0e0e0e)" d="M17.504 8.269h-11.283c-0.127 0-0.249-0.051-0.339-0.141s-0.141-0.212-0.141-0.339 0.051-0.249 0.141-0.339c0.090-0.090 0.212-0.141 0.339-0.141h11.283c0.127 0 0.249 0.051 0.339 0.141s0.141 0.212 0.141 0.339-0.051 0.249-0.141 0.339c-0.090 0.090-0.212 0.141-0.339 0.141z"></path>
<path fill="#0e0e0e" style="fill: var(--color2, #0e0e0e)" d="M17.504 9.99h-4.256c-0.127 0-0.249-0.051-0.339-0.141s-0.141-0.212-0.141-0.339c0-0.127 0.051-0.249 0.141-0.339s0.212-0.141 0.339-0.141h4.256c0.127 0 0.249 0.051 0.339 0.141s0.141 0.212 0.141 0.339c0 0.127-0.051 0.249-0.141 0.339s-0.212 0.141-0.339 0.141z"></path>
<path fill="#fff" style="fill: var(--color1, #fff)" d="M29.456 21.437h-4.157c-0.576 0-1.043 0.467-1.043 1.043v0.269c0 0.576 0.467 1.043 1.043 1.043h4.157c0.576 0 1.043-0.467 1.043-1.043v-0.269c0-0.576-0.467-1.043-1.043-1.043z"></path>
<path fill="#0e0e0e" style="fill: var(--color2, #0e0e0e)" d="M29.44 24.272h-4.16c-0.404-0.001-0.792-0.162-1.077-0.448s-0.446-0.674-0.446-1.078v-0.266c0-0.404 0.16-0.791 0.446-1.077s0.673-0.446 1.077-0.446h4.16c0.404 0.001 0.791 0.162 1.076 0.447s0.446 0.672 0.447 1.076v0.266c0 0.404-0.16 0.792-0.446 1.078s-0.673 0.447-1.077 0.448zM25.28 21.917c-0.149 0-0.293 0.059-0.398 0.165s-0.165 0.249-0.165 0.398v0.266c0 0.15 0.059 0.293 0.165 0.399s0.249 0.166 0.398 0.167h4.16c0.15-0.001 0.293-0.061 0.398-0.167s0.165-0.25 0.165-0.399v-0.266c0-0.149-0.059-0.293-0.165-0.398s-0.249-0.165-0.398-0.165h-4.16z"></path>
<path fill="#fff" style="fill: var(--color1, #fff)" d="M29.456 15.152h-4.157c-0.576 0-1.043 0.467-1.043 1.043v0.269c0 0.576 0.467 1.043 1.043 1.043h4.157c0.576 0 1.043-0.467 1.043-1.043v-0.269c0-0.576-0.467-1.043-1.043-1.043z"></path>
<path fill="#0e0e0e" style="fill: var(--color2, #0e0e0e)" d="M29.44 17.987h-4.16c-0.404-0.001-0.792-0.162-1.077-0.448s-0.446-0.674-0.446-1.078v-0.266c0-0.404 0.16-0.791 0.446-1.077s0.673-0.446 1.077-0.446h4.16c0.404 0.001 0.791 0.162 1.076 0.447s0.446 0.672 0.447 1.076v0.266c0 0.404-0.16 0.792-0.446 1.078s-0.673 0.447-1.077 0.448zM25.28 15.632c-0.149 0-0.293 0.059-0.398 0.165s-0.165 0.249-0.165 0.398v0.266c-0 0.074 0.014 0.148 0.042 0.216s0.070 0.131 0.122 0.184c0.052 0.053 0.115 0.094 0.183 0.123s0.142 0.043 0.216 0.043h4.16c0.074 0 0.148-0.015 0.216-0.043s0.131-0.070 0.183-0.123c0.052-0.053 0.094-0.115 0.122-0.184s0.042-0.142 0.042-0.216v-0.266c0-0.149-0.059-0.293-0.165-0.398s-0.249-0.165-0.398-0.165h-4.16z"></path>
<path fill="#fff" style="fill: var(--color1, #fff)" d="M29.456 10.784h-4.157c-0.576 0-1.043 0.467-1.043 1.043v0.269c0 0.576 0.467 1.043 1.043 1.043h4.157c0.576 0 1.043-0.467 1.043-1.043v-0.269c0-0.576-0.467-1.043-1.043-1.043z"></path>
<path fill="#0e0e0e" style="fill: var(--color2, #0e0e0e)" d="M29.44 13.619h-4.16c-0.404-0.001-0.792-0.162-1.077-0.448s-0.446-0.674-0.446-1.078v-0.253c0-0.404 0.16-0.791 0.446-1.077s0.673-0.446 1.077-0.446h4.16c0.201-0.001 0.4 0.037 0.586 0.113s0.355 0.188 0.498 0.329 0.256 0.31 0.334 0.495c0.077 0.185 0.118 0.384 0.118 0.585v0.266c-0.003 0.404-0.167 0.791-0.455 1.074s-0.677 0.442-1.081 0.439zM25.28 11.264c-0.148 0.005-0.289 0.068-0.39 0.176s-0.157 0.252-0.154 0.4v0.266c0 0.15 0.059 0.293 0.165 0.399s0.249 0.166 0.398 0.167h4.141c0.15-0.001 0.293-0.061 0.398-0.167s0.165-0.25 0.165-0.399v-0.266c0.002-0.075-0.012-0.15-0.039-0.22s-0.069-0.133-0.121-0.187c-0.052-0.054-0.115-0.096-0.184-0.125s-0.143-0.044-0.218-0.044h-4.16z"></path>
<path fill="#0e0e0e" style="fill: var(--color2, #0e0e0e)" d="M20.227 27.84h-2.723v-0.96h2.723c0.182 0 0.356-0.072 0.484-0.201s0.201-0.303 0.201-0.484v-2.419c0-0.435 0.173-0.853 0.481-1.161s0.725-0.481 1.161-0.481h1.702v0.96h-1.702c-0.18 0.001-0.353 0.073-0.481 0.201s-0.2 0.301-0.201 0.481v2.41c0.001 0.217-0.041 0.431-0.123 0.632s-0.203 0.383-0.356 0.536c-0.153 0.154-0.334 0.276-0.534 0.359s-0.415 0.127-0.631 0.127z"></path>
<path fill="#0e0e0e" style="fill: var(--color2, #0e0e0e)" d="M15.645 26.173h-0.96v-8.682c0.001-0.434 0.173-0.85 0.479-1.158s0.722-0.481 1.156-0.484h7.936v0.96h-7.936c-0.181 0-0.355 0.072-0.483 0.199s-0.201 0.301-0.202 0.482l0.010 8.682z"></path>
<path fill="#0e0e0e" style="fill: var(--color2, #0e0e0e)" d="M12.342 26.173h-0.96v-13.053c0.001-0.436 0.175-0.853 0.483-1.161s0.726-0.481 1.162-0.481h11.229v0.96h-11.229c-0.181 0-0.355 0.072-0.483 0.199s-0.201 0.301-0.202 0.482v13.053z"></path>
<path fill="#fff" style="fill: var(--color1, #fff)" d="M16.461 26.173h-9.197c-0.576 0-1.043 0.467-1.043 1.043v0.269c0 0.576 0.467 1.043 1.043 1.043h9.197c0.576 0 1.043-0.467 1.043-1.043v-0.269c0-0.576-0.467-1.043-1.043-1.043z"></path>
<path fill="#0e0e0e" style="fill: var(--color2, #0e0e0e)" d="M16.458 29.008h-9.194c-0.404-0.001-0.792-0.162-1.077-0.448s-0.446-0.674-0.446-1.078v-0.266c0.001-0.404 0.162-0.791 0.447-1.076s0.672-0.446 1.076-0.447h9.194c0.404 0 0.792 0.16 1.078 0.446s0.447 0.673 0.448 1.077v0.266c-0.001 0.405-0.162 0.792-0.448 1.078s-0.674 0.447-1.078 0.448zM7.264 26.653c-0.149 0-0.293 0.059-0.398 0.165s-0.165 0.249-0.165 0.398v0.266c0 0.15 0.059 0.293 0.165 0.399s0.249 0.166 0.398 0.167h9.194c0.074 0 0.148-0.015 0.217-0.043s0.131-0.070 0.184-0.123c0.053-0.053 0.094-0.115 0.123-0.184s0.043-0.142 0.043-0.217v-0.266c0-0.074-0.015-0.148-0.043-0.216s-0.070-0.131-0.123-0.183c-0.053-0.052-0.115-0.094-0.184-0.122s-0.142-0.042-0.216-0.042h-9.194z"></path>
</symbol>


<symbol id="icon-development" viewBox="0 0 32 32">
<path fill="#fff" style="fill: var(--color1, #fff)" d="M26.561 5.878h-21.122c-1.561 0-2.827 1.546-2.827 3.453v17.257c0 1.907 1.266 3.453 2.827 3.453h21.122c1.561 0 2.827-1.546 2.827-3.453v-17.257c0-1.907-1.266-3.453-2.827-3.453z"></path>
<path fill="#0e0e0e" style="fill: var(--color2, #0e0e0e)" d="M26.567 30.933h-21.135c-0.875-0.001-1.713-0.43-2.332-1.194s-0.966-1.799-0.967-2.879v-17.454c0.001-1.080 0.349-2.115 0.967-2.879s1.457-1.193 2.332-1.194h21.135c0.875 0.001 1.713 0.43 2.332 1.194s0.966 1.799 0.967 2.879v17.454c-0.001 1.080-0.349 2.115-0.967 2.879s-1.457 1.193-2.332 1.194zM5.433 6.497c-0.625 0.001-1.224 0.308-1.665 0.853s-0.69 1.285-0.691 2.056v17.454c0.001 0.771 0.249 1.511 0.691 2.056s1.041 0.852 1.665 0.853h21.135c0.625-0.001 1.224-0.308 1.666-0.853s0.69-1.285 0.691-2.056v-17.454c-0.001-0.771-0.249-1.511-0.691-2.056s-1.041-0.852-1.666-0.853h-21.135z"></path>
<path fill="#0e0e0e" style="fill: var(--color2, #0e0e0e)" d="M5.12 8.499c0.322 0 0.582-0.261 0.582-0.582s-0.261-0.582-0.582-0.582-0.582 0.261-0.582 0.582c0 0.322 0.261 0.582 0.582 0.582z"></path>
<path fill="#0e0e0e" style="fill: var(--color2, #0e0e0e)" d="M7.094 8.499c0.322 0 0.582-0.261 0.582-0.582s-0.261-0.582-0.582-0.582-0.582 0.261-0.582 0.582c0 0.322 0.261 0.582 0.582 0.582z"></path>
<path fill="#0e0e0e" style="fill: var(--color2, #0e0e0e)" d="M9.072 8.499c0.322 0 0.582-0.261 0.582-0.582s-0.261-0.582-0.582-0.582-0.582 0.261-0.582 0.582c0 0.322 0.261 0.582 0.582 0.582z"></path>
<path fill="#0e0e0e" style="fill: var(--color2, #0e0e0e)" d="M26.832 8.397h-5.392c-0.127 0-0.249-0.051-0.339-0.141s-0.141-0.212-0.141-0.339c0-0.127 0.051-0.249 0.141-0.339s0.212-0.141 0.339-0.141h5.392c0.127 0 0.249 0.051 0.339 0.141s0.141 0.212 0.141 0.339c0 0.127-0.051 0.249-0.141 0.339s-0.212 0.141-0.339 0.141z"></path>
<path fill="#0e0e0e" style="fill: var(--color2, #0e0e0e)" d="M14.029 23.77c-0.082-0-0.162-0.021-0.233-0.061s-0.131-0.097-0.174-0.167c-0.043-0.070-0.067-0.149-0.071-0.231s0.014-0.163 0.050-0.236l3.914-7.875c0.056-0.114 0.156-0.201 0.276-0.242s0.253-0.032 0.367 0.024c0.114 0.056 0.201 0.156 0.242 0.277s0.032 0.253-0.024 0.367l-3.917 7.878c-0.040 0.080-0.101 0.147-0.177 0.194s-0.163 0.072-0.252 0.072z"></path>
<path fill="#0e0e0e" style="fill: var(--color2, #0e0e0e)" d="M20.109 22.199c-0.079 0.001-0.158-0.018-0.228-0.056s-0.129-0.092-0.172-0.159c-0.035-0.052-0.059-0.111-0.072-0.172s-0.012-0.125-0-0.186c0.012-0.062 0.036-0.12 0.071-0.172s0.080-0.097 0.132-0.132l3.040-2.022-2.845-1.891c-0.106-0.070-0.18-0.18-0.205-0.305s0-0.255 0.071-0.361 0.18-0.18 0.305-0.205c0.125-0.025 0.255 0 0.361 0.071l3.434 2.291c0.066 0.044 0.12 0.103 0.158 0.173s0.057 0.148 0.057 0.227-0.020 0.157-0.057 0.227c-0.038 0.070-0.092 0.129-0.158 0.173l-3.626 2.419c-0.079 0.052-0.171 0.080-0.266 0.080z"></path>
<path fill="#0e0e0e" style="fill: var(--color2, #0e0e0e)" d="M11.891 22.199c-0.094-0-0.187-0.028-0.266-0.080l-3.626-2.419c-0.066-0.044-0.12-0.103-0.158-0.173s-0.057-0.148-0.057-0.227 0.020-0.157 0.057-0.227c0.037-0.070 0.092-0.129 0.158-0.173l3.443-2.291c0.106-0.070 0.236-0.096 0.361-0.071s0.235 0.099 0.305 0.205 0.096 0.236 0.071 0.361c-0.025 0.125-0.099 0.235-0.205 0.305l-2.854 1.891 3.040 2.022c0.052 0.035 0.097 0.080 0.132 0.132s0.059 0.111 0.071 0.172c0.012 0.062 0.012 0.125-0 0.186s-0.037 0.12-0.072 0.172c-0.043 0.067-0.102 0.121-0.172 0.159s-0.148 0.057-0.228 0.056z"></path>
<path fill="#0e0e0e" style="fill: var(--color2, #0e0e0e)" d="M29.638 9.226h-27.28v0.96h27.28v-0.96z"></path>
</symbol>


<symbol id="icon-wireframing" viewBox="0 0 32 32">
<path fill="#fff" style="fill: var(--color1, #fff)" d="M29.126 4.195h-26.112c-0.398 0-0.72 0.322-0.72 0.72v22.166c0 0.398 0.322 0.72 0.72 0.72h26.112c0.398 0 0.72-0.322 0.72-0.72v-22.166c0-0.398-0.322-0.72-0.72-0.72z"></path>
<path fill="#0e0e0e" style="fill: var(--color2, #0e0e0e)" d="M29.12 28.285h-26.102c-0.319-0.001-0.624-0.128-0.85-0.353s-0.353-0.531-0.353-0.85v-22.163c0.001-0.319 0.128-0.624 0.353-0.85s0.531-0.353 0.85-0.353h26.102c0.319 0.001 0.624 0.128 0.849 0.354s0.351 0.531 0.351 0.85v22.163c0 0.319-0.126 0.624-0.351 0.85s-0.53 0.353-0.849 0.354zM3.018 4.675c-0.065 0-0.126 0.026-0.172 0.071s-0.071 0.107-0.071 0.172v22.163c0 0.065 0.026 0.126 0.071 0.172s0.107 0.071 0.172 0.071h26.102c0.064-0.001 0.125-0.027 0.17-0.072s0.070-0.107 0.070-0.171v-22.163c0-0.064-0.025-0.125-0.070-0.171s-0.106-0.072-0.17-0.072h-26.102z"></path>
<path fill="#0e0e0e" style="fill: var(--color2, #0e0e0e)" d="M5.082 6.797c0.323 0 0.586-0.262 0.586-0.586s-0.262-0.586-0.586-0.586c-0.323 0-0.586 0.262-0.586 0.586s0.262 0.586 0.586 0.586z"></path>
<path fill="#0e0e0e" style="fill: var(--color2, #0e0e0e)" d="M7.078 6.797c0.323 0 0.586-0.262 0.586-0.586s-0.262-0.586-0.586-0.586c-0.323 0-0.586 0.262-0.586 0.586s0.262 0.586 0.586 0.586z"></path>
<path fill="#0e0e0e" style="fill: var(--color2, #0e0e0e)" d="M9.072 6.797c0.323 0 0.586-0.262 0.586-0.586s-0.262-0.586-0.586-0.586c-0.323 0-0.586 0.262-0.586 0.586s0.262 0.586 0.586 0.586z"></path>
<path fill="#0e0e0e" style="fill: var(--color2, #0e0e0e)" d="M27.011 6.691h-5.44c-0.127 0-0.249-0.051-0.339-0.141s-0.141-0.212-0.141-0.339 0.051-0.249 0.141-0.339c0.090-0.090 0.212-0.141 0.339-0.141h5.44c0.127 0 0.249 0.051 0.339 0.141s0.141 0.212 0.141 0.339-0.051 0.249-0.141 0.339c-0.090 0.090-0.212 0.141-0.339 0.141z"></path>
<path fill="#0e0e0e" style="fill: var(--color2, #0e0e0e)" d="M29.846 7.536h-27.552v0.96h27.552v-0.96z"></path>
<path fill="#fff" style="fill: var(--color1, #fff)" d="M27.814 9.789h-23.523c-0.159 0-0.288 0.129-0.288 0.288v2.906c0 0.159 0.129 0.288 0.288 0.288h23.523c0.159 0 0.288-0.129 0.288-0.288v-2.906c0-0.159-0.129-0.288-0.288-0.288z"></path>
<path fill="#0e0e0e" style="fill: var(--color2, #0e0e0e)" d="M27.814 13.587h-23.523c-0.161 0-0.316-0.064-0.43-0.178s-0.178-0.269-0.178-0.43v-2.902c0-0.161 0.064-0.316 0.178-0.43s0.269-0.178 0.43-0.178h23.523c0.161 0.001 0.315 0.065 0.429 0.179s0.178 0.268 0.179 0.429v2.902c-0.001 0.161-0.065 0.315-0.179 0.429s-0.268 0.178-0.429 0.179zM4.323 12.947h23.459v-2.838h-23.459v2.838z"></path>
<path fill="#fff" style="fill: var(--color1, #fff)" d="M27.811 15.283h-8.563c-0.159 0-0.288 0.129-0.288 0.288v10.336c0 0.159 0.129 0.288 0.288 0.288h8.563c0.159 0 0.288-0.129 0.288-0.288v-10.336c0-0.159-0.129-0.288-0.288-0.288z"></path>
<path fill="#0e0e0e" style="fill: var(--color2, #0e0e0e)" d="M27.814 26.515h-8.563c-0.159 0-0.312-0.062-0.427-0.173s-0.18-0.263-0.185-0.422v-10.349c0.001-0.162 0.066-0.316 0.18-0.43s0.27-0.178 0.431-0.178h8.563c0.161 0.001 0.315 0.065 0.429 0.179s0.178 0.268 0.179 0.429v10.349c-0.004 0.159-0.070 0.31-0.183 0.421s-0.266 0.174-0.425 0.174zM19.28 25.875h8.502v-10.272h-8.502v10.272z"></path>
<path fill="#fff" style="fill: var(--color1, #fff)" d="M16.515 23.533h-8.563c-0.159 0-0.288 0.129-0.288 0.288v1.542c0 0.159 0.129 0.288 0.288 0.288h8.563c0.159 0 0.288-0.129 0.288-0.288v-1.542c0-0.159-0.129-0.288-0.288-0.288z"></path>
<path fill="#0e0e0e" style="fill: var(--color2, #0e0e0e)" d="M16.518 25.968h-8.566c-0.161-0.001-0.315-0.065-0.429-0.179s-0.178-0.268-0.179-0.429v-1.539c0.001-0.161 0.065-0.315 0.179-0.429s0.268-0.178 0.429-0.179h8.566c0.161 0.001 0.315 0.065 0.429 0.179s0.178 0.268 0.179 0.429v1.539c-0.001 0.161-0.065 0.315-0.179 0.429s-0.268 0.178-0.429 0.179zM8 25.328h8.486v-1.475h-8.486v1.475z"></path>
<path fill="#0e0e0e" style="fill: var(--color2, #0e0e0e)" d="M16.806 16.842h-5.44c-0.127 0-0.249-0.051-0.339-0.141s-0.141-0.212-0.141-0.339c0-0.127 0.051-0.249 0.141-0.339s0.212-0.141 0.339-0.141h5.44c0.127 0 0.249 0.051 0.339 0.141s0.141 0.212 0.141 0.339c0 0.127-0.051 0.249-0.141 0.339s-0.212 0.141-0.339 0.141z"></path>
<path fill="#0e0e0e" style="fill: var(--color2, #0e0e0e)" d="M16.806 18.746h-11.283c-0.085 0-0.166-0.034-0.226-0.094s-0.094-0.141-0.094-0.226c0-0.085 0.034-0.166 0.094-0.226s0.141-0.094 0.226-0.094h11.283c0.085 0 0.166 0.034 0.226 0.094s0.094 0.141 0.094 0.226c0 0.085-0.034 0.166-0.094 0.226s-0.141 0.094-0.226 0.094z"></path>
<path fill="#0e0e0e" style="fill: var(--color2, #0e0e0e)" d="M16.806 20.211h-11.283c-0.085 0-0.166-0.034-0.226-0.094s-0.094-0.141-0.094-0.226c0-0.085 0.034-0.166 0.094-0.226s0.141-0.094 0.226-0.094h11.283c0.085 0 0.166 0.034 0.226 0.094s0.094 0.141 0.094 0.226c0 0.085-0.034 0.166-0.094 0.226s-0.141 0.094-0.226 0.094z"></path>
<path fill="#0e0e0e" style="fill: var(--color2, #0e0e0e)" d="M16.806 21.635h-8.32c-0.085 0-0.166-0.034-0.226-0.094s-0.094-0.141-0.094-0.226c0-0.085 0.034-0.166 0.094-0.226s0.141-0.094 0.226-0.094h8.32c0.085 0 0.166 0.034 0.226 0.094s0.094 0.141 0.094 0.226c0 0.085-0.034 0.166-0.094 0.226s-0.141 0.094-0.226 0.094z"></path>
<path fill="#0e0e0e" style="fill: var(--color2, #0e0e0e)" d="M27.519 15.219l-8.36 10.495 0.501 0.399 8.36-10.495-0.501-0.399z"></path>
<path fill="#0e0e0e" style="fill: var(--color2, #0e0e0e)" d="M19.447 15.379l-0.495 0.406 8.557 10.418 0.495-0.406-8.557-10.418z"></path>
<path fill="#0e0e0e" style="fill: var(--color2, #0e0e0e)" d="M28.111 9.933l-24.397 2.853 0.037 0.318 24.397-2.853-0.037-0.318z"></path>
<path fill="#0e0e0e" style="fill: var(--color2, #0e0e0e)" d="M3.75 9.94l-0.037 0.318 24.398 2.845 0.037-0.318-24.398-2.845z"></path>
</symbol>


<symbol id="icon-logo" viewBox="0 0 30 32">
<path fill="#ffeb38" style="fill: var(--color4, #ffeb38)" d="M9.814 7.018c2.599-2.366 5.641-3.455 9.139-3.254 3.559 0.205 6.378 1.857 8.78 4.548 0.852-0.915 1.623-1.745 2.452-2.633-0.081-0.104-0.17-0.208-0.255-0.309l-0.559 0.139 0.123-0.641c-1.662-1.822-3.744-3.142-5.996-3.942l-0.617 0.795 0.17-0.942c-1.569-0.51-3.208-0.768-4.843-0.78l-0.243 1.139-0.432-1.131c-1.932 0.070-3.837 0.486-5.572 1.259-0.069 0.031-0.135 0.070-0.2 0.1l0.066 0.726-0.497-0.479-2.861 1.849 1.049 2.783c0.069 0.259 0.166 0.513 0.289 0.764l0.008 0.008z"></path>
<path fill="#ffeb38" style="fill: var(--color4, #ffeb38)" d="M13.912 6.019c-1.037 0.494-1.747 0.923-2.213 1.382v-0.069l-1.311 0.954 1.639 3.451c0.012 0.019 0.019 0.039 0.035 0.066 3.586-4.378 8.992-3.795 11.923-0.208 0.879-0.834 1.755-1.664 2.614-2.482-2.904-3.949-8.24-5.208-12.686-3.092z"></path>
<path fill="#ffeb38" style="fill: var(--color4, #ffeb38)" d="M27.034 24.456c-2.449 2.521-5.418 3.795-8.923 3.806-3.563 0.012-6.482-1.463-9.042-4-0.794 0.965-1.515 1.841-2.287 2.78 0.089 0.1 0.181 0.197 0.274 0.293l0.548-0.174-0.085 0.645c1.77 1.718 3.929 2.907 6.227 3.567l0.567-0.83-0.112 0.954c1.596 0.405 3.251 0.564 4.882 0.475l0.173-1.15 0.497 1.1c1.924-0.189 3.798-0.718 5.483-1.598 0.069-0.035 0.131-0.077 0.193-0.116l-0.112-0.718 0.524 0.448 2.742-2.023-1.218-2.714c-0.085-0.255-0.197-0.502-0.335-0.745h0.004z"></path>
<path fill="#ffeb38" style="fill: var(--color4, #ffeb38)" d="M12.613 20.758c-0.825 0.888-1.65 1.772-2.46 2.641 3.143 3.764 8.545 4.694 12.852 2.305 1.006-0.556 3.378-2.479 3.378-2.479l-1.847-3.343c-0.015-0.019-0.023-0.039-0.039-0.062-3.312 4.59-8.745 4.339-11.888 0.938h0.004z"></path>
<path fill="#ffeb38" style="fill: var(--color4, #ffeb38)" d="M7.461 4.308c-0.845 0.845-1.566 1.699-2.171 2.552l0.945 0.896-1.257-0.444c-1.226 1.841-1.943 3.671-2.302 5.432l0.902 0.483-1.006 0.097c-0.339 2.108-0.177 4.1 0.22 5.86l2.009-0.143-1.886 0.656c0.513 1.988 1.303 3.648 1.959 4.799l0.922-0.795-0.69 1.189c0.524 0.872 0.914 1.367 0.914 1.367l7.091-10.076-5.653-11.871h0.004z"></path>
</symbol>

<symbol id="icon-facebook" viewBox="0 0 32 32">
<path fill="#f4f4fd" style="fill: var(--color1, #f4f4fd)" d="M21.329 5.313h2.921v-5.088c-0.504-0.069-2.237-0.225-4.256-0.225-4.212 0-7.097 2.649-7.097 7.519v4.481h-4.648v5.688h4.648v14.312h5.699v-14.311h4.46l0.708-5.688h-5.169v-3.919c0.001-1.644 0.444-2.769 2.735-2.769z"></path>
</symbol>


<symbol id="icon-twitter" viewBox="0 0 32 32">
<path fill="#f4f4fd" style="fill: var(--color1, #f4f4fd)" d="M32 6.078c-1.19 0.522-2.458 0.868-3.78 1.036 1.36-0.812 2.398-2.088 2.886-3.626-1.268 0.756-2.668 1.29-4.16 1.588-1.204-1.282-2.92-2.076-4.792-2.076-3.632 0-6.556 2.948-6.556 6.562 0 0.52 0.044 1.020 0.152 1.496-5.454-0.266-10.28-2.88-13.522-6.862-0.566 0.982-0.898 2.106-0.898 3.316 0 2.272 1.17 4.286 2.914 5.452-1.054-0.020-2.088-0.326-2.964-0.808 0 0.020 0 0.046 0 0.072 0 3.188 2.274 5.836 5.256 6.446-0.534 0.146-1.116 0.216-1.72 0.216-0.42 0-0.844-0.024-1.242-0.112 0.85 2.598 3.262 4.508 6.13 4.57-2.232 1.746-5.066 2.798-8.134 2.798-0.538 0-1.054-0.024-1.57-0.090 2.906 1.874 6.35 2.944 10.064 2.944 12.072 0 18.672-10 18.672-18.668 0-0.29-0.010-0.57-0.024-0.848 1.302-0.924 2.396-2.078 3.288-3.406z"></path>
</symbol>


<symbol id="icon-instagramm" viewBox="0 0 32 32">
<path fill="#f4f4fd" style="fill: var(--color1, #f4f4fd)" d="M31.969 9.408c-0.075-1.7-0.35-2.869-0.744-3.882-0.406-1.075-1.031-2.038-1.851-2.838-0.8-0.813-1.769-1.444-2.832-1.844-1.019-0.394-2.181-0.669-3.882-0.744-1.713-0.081-2.257-0.1-6.601-0.1s-4.888 0.019-6.595 0.094c-1.7 0.075-2.869 0.35-3.882 0.744-1.075 0.406-2.038 1.031-2.838 1.85-0.813 0.8-1.444 1.769-1.844 2.832-0.394 1.019-0.669 2.182-0.744 3.882-0.081 1.713-0.1 2.257-0.1 6.601s0.019 4.888 0.094 6.595c0.075 1.7 0.35 2.869 0.744 3.882 0.406 1.075 1.038 2.038 1.85 2.838 0.8 0.813 1.769 1.444 2.832 1.844 1.019 0.394 2.182 0.669 3.882 0.744 1.706 0.075 2.25 0.094 6.595 0.094s4.888-0.019 6.595-0.094c1.7-0.075 2.869-0.35 3.882-0.744 2.151-0.831 3.851-2.532 4.682-4.682 0.394-1.019 0.669-2.182 0.744-3.882 0.075-1.707 0.094-2.25 0.094-6.595s-0.006-4.888-0.081-6.595zM29.087 22.473c-0.069 1.563-0.331 2.407-0.55 2.969-0.538 1.394-1.644 2.5-3.038 3.038-0.563 0.219-1.413 0.481-2.969 0.55-1.688 0.075-2.194 0.094-6.464 0.094s-4.782-0.019-6.464-0.094c-1.563-0.069-2.407-0.331-2.969-0.55-0.694-0.256-1.325-0.663-1.838-1.194-0.531-0.519-0.938-1.144-1.194-1.838-0.219-0.563-0.481-1.413-0.55-2.969-0.075-1.688-0.094-2.194-0.094-6.464s0.019-4.782 0.094-6.464c0.069-1.563 0.331-2.407 0.55-2.969 0.256-0.694 0.663-1.325 1.2-1.838 0.519-0.531 1.144-0.938 1.838-1.194 0.563-0.219 1.413-0.481 2.969-0.55 1.688-0.075 2.194-0.094 6.464-0.094 4.276 0 4.782 0.019 6.464 0.094 1.563 0.069 2.407 0.331 2.969 0.55 0.694 0.256 1.325 0.662 1.838 1.194 0.531 0.519 0.938 1.144 1.194 1.838 0.219 0.563 0.481 1.413 0.55 2.969 0.075 1.688 0.094 2.194 0.094 6.464s-0.019 4.77-0.094 6.458z"></path>
<path fill="#f4f4fd" style="fill: var(--color1, #f4f4fd)" d="M16.059 7.783c-4.538 0-8.22 3.682-8.22 8.22s3.682 8.22 8.22 8.22c4.539 0 8.22-3.682 8.22-8.22s-3.682-8.22-8.22-8.22zM16.059 21.335c-2.944 0-5.332-2.388-5.332-5.332s2.388-5.332 5.332-5.332c2.945 0 5.332 2.388 5.332 5.332s-2.388 5.332-5.332 5.332z"></path>
<path fill="#f4f4fd" style="fill: var(--color1, #f4f4fd)" d="M26.524 7.458c0 1.060-0.859 1.919-1.919 1.919s-1.919-0.859-1.919-1.919c0-1.060 0.859-1.919 1.919-1.919s1.919 0.859 1.919 1.919z"></path>
</symbol>


<symbol id="icon-linkedin" viewBox="0 0 32 32">
<path fill="#f4f4fd" style="fill: var(--color1, #f4f4fd)" d="M31.992 32v-0.001h0.008v-11.736c0-5.741-1.236-10.164-7.948-10.164-3.227 0-5.392 1.771-6.276 3.449h-0.093v-2.913h-6.364v21.364h6.627v-10.579c0-2.785 0.528-5.479 3.977-5.479 3.399 0 3.449 3.179 3.449 5.657v10.401h6.62z"></path>
<path fill="#f4f4fd" style="fill: var(--color1, #f4f4fd)" d="M0.528 10.636h6.635v21.364h-6.635v-21.364z"></path>
<path fill="#f4f4fd" style="fill: var(--color1, #f4f4fd)" d="M3.843 0c-2.121 0-3.843 1.721-3.843 3.843s1.721 3.879 3.843 3.879c2.121 0 3.843-1.757 3.843-3.879-0.001-2.121-1.723-3.843-3.843-3.843v0z"></path>
</symbol>
</defs>
</svg>
